<?xml version="1.0" standalone="no"?><!DOCTYPE svg PUBLIC "-//W3C//DTD SVG 1.1//EN" "http://www.w3.org/Graphics/SVG/1.1/DTD/svg11.dtd"><svg t="1511086503342" class="icon" style="" viewBox="0 0 1024 1024" version="1.1" xmlns="http://www.w3.org/2000/svg" p-id="5090" xmlns:xlink="http://www.w3.org/1999/xlink" width="200" height="200"><defs><style type="text/css"></style></defs><path d="M768 512 614.4 512 614.4 387.584 614.4 358.4C614.4 330.1376 637.3376 307.2 665.6 307.2L768 307.2C796.2624 307.2 819.2 330.1376 819.2 358.4L819.2 387.584 819.2 460.8C819.2 489.0624 796.2624 512 768 512L768 512ZM409.6 387.584 409.6 512 256 512C227.84 512 204.8 488.96 204.8 460.8L204.8 387.584 204.8 358.4C204.8 330.1376 227.7376 307.2 256 307.2L358.4 307.2C386.6624 307.2 409.6 330.1376 409.6 358.4L409.6 387.584ZM921.6 184.4736 921.6 490.752C921.6 641.9456 839.0144 773.9904 716.8 844.9536L716.8 797.184 716.8 694.784 716.8 643.584C716.8 615.3216 693.8624 592.384 665.6 592.384 637.3376 592.384 614.4 569.4464 614.4 541.184L614.4 512 409.6 512 409.6 541.184C409.6 569.4464 386.6624 592.384 358.4 592.384 330.1376 592.384 307.2 615.3216 307.2 643.584L307.2 694.784 307.2 797.184 307.2 844.9536C184.9856 773.9904 102.4 641.9456 102.4 490.752L102.4 184.4736 102.4 132.352C102.4 104.0896 125.3376 102.4 153.6 102.4L205.7216 102.4 512 102.4 818.2784 102.4 870.4 102.4C898.6624 102.4 921.6 104.0896 921.6 132.352L921.6 184.4736ZM409.6 886.8864 409.6 848.384C409.6 820.1216 432.5376 819.2 460.8 819.2L563.2 819.2C591.4624 819.2 614.4 820.1216 614.4 848.384L614.4 886.8864C581.5808 895.3344 547.4304 921.6 512 921.6 476.5696 921.6 442.4192 895.3344 409.6 886.8864L409.6 886.8864ZM921.6 0 512 0 102.4 0C45.824 0 0 24.576 0 81.152L0 490.752C0 605.7472 38.4 711.5264 102.4 797.0304 131.7888 836.2496 166.5536 870.9632 205.7216 900.352 291.2256 964.352 397.0048 1024 512 1024 626.9952 1024 732.7744 964.352 818.2784 900.352 857.4464 870.9632 892.2112 836.2496 921.6 797.0304 985.6 711.5264 1024 605.7472 1024 490.752L1024 81.152C1024 24.576 978.176 0 921.6 0L921.6 0Z" p-id="5091"></path></svg>