<?xml version="1.0" standalone="no"?><!DOCTYPE svg PUBLIC "-//W3C//DTD SVG 1.1//EN" "http://www.w3.org/Graphics/SVG/1.1/DTD/svg11.dtd"><svg t="1511086491773" class="icon" style="" viewBox="0 0 1024 1024" version="1.1" xmlns="http://www.w3.org/2000/svg" p-id="4763" xmlns:xlink="http://www.w3.org/1999/xlink" width="200" height="200"><defs><style type="text/css"></style></defs><path d="M768 512 614.4 512 614.4 358.4C614.4 330.1376 637.3376 307.2 665.6 307.2L768 307.2C796.2624 307.2 819.2 330.1376 819.2 358.4L819.2 460.8C819.2 489.0624 796.2624 512 768 512L768 512ZM409.6 512 256 512C227.84 512 204.8 488.96 204.8 460.8L204.8 358.4C204.8 330.1376 227.7376 307.2 256 307.2L358.4 307.2C386.6624 307.2 409.6 330.1376 409.6 358.4L409.6 512ZM921.6 849.92C921.6 878.1824 898.6624 921.6 870.4 921.6L716.8 921.6 716.8 644.352C716.8 616.0896 693.8624 593.152 665.6 593.152 637.3376 593.152 614.4 570.2144 614.4 541.952L614.4 512 409.6 512 409.6 541.952C409.6 570.2144 386.6624 593.152 358.4 593.152 330.1376 593.152 307.2 616.0896 307.2 644.352L307.2 921.6 153.6 921.6C125.3376 921.6 102.4 878.1824 102.4 849.92L102.4 491.52C102.4 265.6768 286.1568 102.4 512 102.4 737.8432 102.4 921.6 265.6768 921.6 491.52L921.6 849.92ZM409.6 921.6 409.6 849.152C409.6 820.8896 432.5376 819.2 460.8 819.2L563.2 819.2C591.4624 819.2 614.4 820.8896 614.4 849.152L614.4 921.6 409.6 921.6ZM921.6 185.2416C815.0528 42.9568 690.4832 0 512 0 333.1584 0 208.8448 43.1104 102.4 185.2416 38.4 270.7456 0 376.5248 0 491.52L0 901.12C0 957.696 45.824 1024 102.4 1024L512 1024 921.6 1024C978.176 1024 1024 957.696 1024 901.12L1024 491.52C1024 376.5248 985.6 270.7456 921.6 185.2416L921.6 185.2416Z" p-id="4764"></path></svg>