<?xml version="1.0" standalone="no"?><!DOCTYPE svg PUBLIC "-//W3C//DTD SVG 1.1//EN" "http://www.w3.org/Graphics/SVG/1.1/DTD/svg11.dtd"><svg t="1511086500124" class="icon" style="" viewBox="0 0 1024 1024" version="1.1" xmlns="http://www.w3.org/2000/svg" p-id="4981" xmlns:xlink="http://www.w3.org/1999/xlink" width="200" height="200"><defs><style type="text/css"></style></defs><path d="M921.6 849.152C921.6 888.9856 888.9856 921.6 849.152 921.6L716.8 921.6 716.8 641.7408C716.8 613.4784 692.8384 593.4592 664.576 593.152 636.7744 592.8448 614.4 580.5056 614.4 552.6016L665.6 512 768 512C796.2624 512 819.2 489.0624 819.2 460.8L819.2 358.4C819.2 330.1376 796.2624 307.2 768 307.2L665.6 307.2C637.3376 307.2 614.4 330.1376 614.4 358.4L614.4 439.552 563.2 512 460.8 512 409.6 439.552 409.6 358.4C409.6 330.1376 386.6624 307.2 358.4 307.2L256 307.2C227.7376 307.2 204.8 330.1376 204.8 358.4L204.8 460.8C204.8 488.96 227.84 512 256 512L358.4 512 409.6 552.6016C409.6 581.9392 384.9216 599.7568 355.1744 598.3744 328.8576 597.1456 307.2 617.984 307.2 644.352L307.2 921.6 153.6 921.6C125.3376 921.6 102.4 898.6624 102.4 870.4L102.4 132.352C102.4 115.8144 115.8144 102.4 132.352 102.4L870.4 102.4C898.6624 102.4 921.6 125.3376 921.6 153.6L921.6 849.152ZM614.4 921.6 409.6 921.6 409.6 849.152C409.6 820.8896 432.5376 819.2 460.8 819.2L563.2 819.2C591.4624 819.2 614.4 820.8896 614.4 849.152L614.4 921.6ZM1024 102.4C1024 45.824 978.176 0 921.6 0L102.4 0C45.824 0 0 45.824 0 102.4L0 921.6C0 978.176 45.824 1024 102.4 1024L921.6 1024C978.176 1024 1024 978.176 1024 921.6L1024 102.4Z" p-id="4982"></path></svg>