<?xml version="1.0" standalone="no"?><!DOCTYPE svg PUBLIC "-//W3C//DTD SVG 1.1//EN" "http://www.w3.org/Graphics/SVG/1.1/DTD/svg11.dtd"><svg t="1511086495565" class="icon" style="" viewBox="0 0 1024 1024" version="1.1" xmlns="http://www.w3.org/2000/svg" p-id="4872" xmlns:xlink="http://www.w3.org/1999/xlink" width="200" height="200"><defs><style type="text/css"></style></defs><path d="M716.8 866.176 716.8 663.0144C716.8 634.7008 692.8384 614.6816 664.576 614.3744 636.7744 614.1184 614.4 601.728 614.4 573.824L665.6 533.2224 768 533.2224C796.2624 533.2224 819.2 510.336 819.2 482.0224L819.2 379.6224C819.2 351.36 796.2624 328.4224 768 328.4224L665.6 328.4224C637.3376 328.4224 614.4 351.36 614.4 379.6224L614.4 460.7744 563.2 533.2224 460.8 533.2224 409.6 460.7744 409.6 379.6224C409.6 351.36 386.6624 328.4224 358.4 328.4224L256 328.4224C227.7376 328.4224 204.8 351.36 204.8 379.6224L204.8 482.0224C204.8 510.1824 227.84 533.2224 256 533.2224L358.4 533.2224 409.6 573.824C409.6 603.1616 384.9216 621.0304 355.1744 619.648 328.8576 618.4192 307.2 639.2576 307.2 665.5744L307.2 866.176C167.4752 785.0752 79.5648 624.1536 107.6224 445.9264 135.7824 267.2384 285.2864 125.1072 465.1008 105.0368 711.8336 77.44 921.6 270.6688 921.6 511.9744 921.6 663.2192 839.0144 795.2128 716.8 866.176M409.6 908.1088 409.6 870.3744C409.6 842.112 432.5376 819.1744 460.8 819.1744L563.2 819.1744C591.4624 819.1744 614.4 842.112 614.4 870.3744L614.4 908.1088C581.5808 916.608 547.4304 921.5744 512 921.5744 476.5696 921.5744 442.4192 916.608 409.6 908.1088M512-0.0256C229.2224-0.0256 0 229.248 0 511.9744 0 794.752 229.2224 1023.9744 512 1023.9744 794.7776 1023.9744 1024 794.752 1024 511.9744 1024 229.248 794.7776-0.0256 512-0.0256" p-id="4873"></path></svg>