<?xml version="1.0" standalone="no"?><!DOCTYPE svg PUBLIC "-//W3C//DTD SVG 1.1//EN" "http://www.w3.org/Graphics/SVG/1.1/DTD/svg11.dtd"><svg t="1511086514254" class="icon" style="" viewBox="0 0 1024 1024" version="1.1" xmlns="http://www.w3.org/2000/svg" p-id="5199" xmlns:xlink="http://www.w3.org/1999/xlink" width="200" height="200"><defs><style type="text/css"></style></defs><path d="M921.6 716.8 1024 716.8 1024 307.2 921.6 307.2 921.6 716.8ZM870.4 921.6 819.2 921.6 819.2 1024 921.6 1024C978.176 1024 1024 978.176 1024 921.6L1024 819.2 921.6 819.2 921.6 870.4C921.6 898.6624 898.6624 921.6 870.4 921.6L870.4 921.6ZM819.2 0 819.2 102.4 870.4 102.4C898.6624 102.4 921.6 125.3376 921.6 153.6L921.6 204.8 1024 204.8 1024 102.4C1024 45.824 978.176 0 921.6 0L819.2 0ZM0 716.8 102.4 716.8 102.4 307.2 0 307.2 0 716.8ZM102.4 819.2 0 819.2 0 921.6C0 978.176 45.824 1024 102.4 1024L204.8 1024 204.8 921.6 153.6 921.6C125.3376 921.6 102.4 898.6624 102.4 870.4L102.4 819.2ZM153.6 102.4 204.8 102.4 204.8 0 102.4 0C45.824 0 0 45.824 0 102.4L0 204.8 102.4 204.8 102.4 153.6C102.4 125.3376 125.3376 102.4 153.6 102.4L153.6 102.4ZM307.2 102.4 716.8 102.4 716.8 0 307.2 0 307.2 102.4ZM409.6 921.6 614.4 921.6 614.4 819.2 409.6 819.2 409.6 921.6ZM665.6 614.4 665.6 614.4C693.8624 614.4 716.8 637.3376 716.8 665.6L716.8 1024 307.2 1024 307.2 665.6C307.2 637.3376 330.1376 614.4 358.4 614.4 386.6624 614.4 409.6 591.4624 409.6 563.2L409.6 512 614.4 512 614.4 563.2C614.4 591.4624 637.3376 614.4 665.6 614.4L665.6 614.4ZM768 307.2 665.6 307.2C637.3376 307.2 614.4 330.1376 614.4 358.4L614.4 512 768 512C796.2624 512 819.2 489.0624 819.2 460.8L819.2 358.4C819.2 330.1376 796.2624 307.2 768 307.2L768 307.2ZM409.6 512 256 512C227.7376 512 204.8 489.0624 204.8 460.8L204.8 358.4C204.8 330.1376 227.7376 307.2 256 307.2L358.4 307.2C386.6624 307.2 409.6 330.1376 409.6 358.4L409.6 512Z" p-id="5200"></path></svg>