<?xml version="1.0" standalone="no"?><!DOCTYPE svg PUBLIC "-//W3C//DTD SVG 1.1//EN" "http://www.w3.org/Graphics/SVG/1.1/DTD/svg11.dtd"><svg t="1511086480525" class="icon" style="" viewBox="0 0 1026 1024" version="1.1" xmlns="http://www.w3.org/2000/svg" p-id="4644" xmlns:xlink="http://www.w3.org/1999/xlink" width="200.390625" height="200"><defs><style type="text/css"></style></defs><path d="M905.128 874.179c-55.431 59.858-124.376 107.001-201.91 136.625L973.43 1010.804 905.128 874.179z" p-id="4645"></path><path d="M323.684 1010.794c-77.54-29.604-146.485-76.757-201.91-136.615l-68.312 136.615L323.684 1010.794z" p-id="4646"></path><path d="M14.412 932.675l59.261-118.532c-24.024-34.834-43.958-72.676-59.261-112.777L14.412 932.675z" p-id="4647"></path><path d="M1025.185 1023.499 1025.205 1023.499 1025.205 1023.488Z" p-id="4648"></path><path d="M1.707 1023.499 1.707 1023.499 1.717 1023.499Z" p-id="4649"></path><path d="M1012.5 701.345c-15.309 40.112-35.242 77.964-59.276 112.798l59.276 118.541L1012.5 701.345z" p-id="4650"></path><path d="M155.458 806.8c85.198 103.194 214.043 169.054 357.982 169.054 143.959 0 272.804-65.859 358.003-169.054L513.44 90.814 155.458 806.8z" p-id="4651"></path><path d="M571.87 51.453l344.827 689.633c38.64-67.699 60.862-145.954 60.862-229.332C977.56 275.634 800.286 80.288 571.87 51.453z" p-id="4652"></path><path d="M49.342 511.754c0 83.377 22.218 161.632 60.869 229.332L455.022 51.453C226.61 80.288 49.342 275.634 49.342 511.754z" p-id="4653"></path><path d="M324.103 12.715 14.407 12.715l0 309.448C68.623 179.986 181.873 66.84 324.103 12.715z" p-id="4654"></path><path d="M1012.5 322.172 1012.5 12.705 702.8 12.705C845.023 66.83 958.277 179.997 1012.5 322.172" p-id="4655"></path></svg>